<svg width="500.2px" height="137.6px" xmlns="http://www.w3.org/2000/svg" viewBox="-0.115814208984375 6.200000000000003 500.23162841796875 137.6" style="background: rgba(0, 0, 0, 0)" preserveAspectRatio="xMidYMid"><defs><linearGradient id="editing-gradient-gradient" x1="0.05449673790581605" x2="0.9455032620941839" y1="0.2730047501302266" y2="0.7269952498697734" gradientUnits="objectBoundingBox"><stop offset="0" stop-color="#ff00ff"></stop><stop offset="1" stop-color="#00ffff"></stop></linearGradient></defs><g><g transform="matrix(1.4,0,0,1.3,18.8,123.5)"><path d="M -7.6 -21.7 L -7.6 -65.6 L -2 -65.6 L -2 -21.7 L -7.6 -21.7 Z M 6.3 -21.7 L 6.3 -55.4 L 10.3 -55.4 L 11 -51.5 L 11.4 -51.5 L 11.4 -51.5 Q 13.9 -56.2 19 -56.2 L 19 -56.2 L 19 -56.2 Q 24.5 -56.2 26.2 -51.3 L 26.2 -51.3 L 26.2 -51.3 Q 27.5 -53.7 29.7 -54.9 L 29.7 -54.9 L 29.7 -54.9 Q 31.9 -56.2 34.4 -56.2 L 34.4 -56.2 L 34.4 -56.2 Q 42.3 -56.2 42.3 -46 L 42.3 -46 L 42.3 -21.7 L 37.1 -21.7 L 37.1 -45.6 L 37.1 -45.6 Q 37.1 -48.9 35.9 -50.2 L 35.9 -50.2 L 35.9 -50.2 Q 34.8 -51.5 32.7 -51.5 L 32.7 -51.5 L 32.7 -51.5 Q 30.3 -51.5 28.6 -49 L 28.6 -49 L 28.6 -49 Q 27 -46.5 27 -42.3 L 27 -42.3 L 27 -21.7 L 21.7 -21.7 L 21.7 -45.6 L 21.7 -45.6 Q 21.7 -48.9 20.6 -50.2 L 20.6 -50.2 L 20.6 -50.2 Q 19.4 -51.5 17.4 -51.5 L 17.4 -51.5 L 17.4 -51.5 Q 14.9 -51.5 13.3 -49 L 13.3 -49 L 13.3 -49 Q 11.6 -46.5 11.6 -42.3 L 11.6 -42.3 L 11.6 -21.7 L 6.3 -21.7 Z M 57.2 -21 L 57.2 -21 Q 53.7 -21 51 -23 L 51 -23 L 51 -23 Q 48.4 -25.1 48.4 -30.4 L 48.4 -30.4 L 48.4 -30.4 Q 48.4 -36.9 52.7 -39.3 L 52.7 -39.3 L 52.7 -39.3 Q 57.1 -41.7 65.4 -41.7 L 65.4 -41.7 L 65.4 -46.1 L 65.4 -46.1 Q 65.4 -48.7 64.2 -50.1 L 64.2 -50.1 L 64.2 -50.1 Q 63.1 -51.5 60.1 -51.5 L 60.1 -51.5 L 60.1 -51.5 Q 57.3 -51.5 56.1 -50 L 56.1 -50 L 56.1 -50 Q 54.9 -48.4 54.9 -46.2 L 54.9 -46.2 L 54.9 -45.4 L 49.7 -45.4 L 49.7 -45.4 Q 49.6 -45.8 49.6 -46.8 L 49.6 -46.8 L 49.6 -46.8 Q 49.6 -51.3 52.6 -53.7 L 52.6 -53.7 L 52.6 -53.7 Q 55.5 -56.2 60.5 -56.2 L 60.5 -56.2 L 60.5 -56.2 Q 65.5 -56.2 68.1 -53.7 L 68.1 -53.7 L 68.1 -53.7 Q 70.6 -51.3 70.6 -46.8 L 70.6 -46.8 L 70.6 -27.9 L 70.6 -27.9 Q 70.6 -26.8 71.1 -26.2 L 71.1 -26.2 L 71.1 -26.2 Q 71.7 -25.6 72.4 -25.6 L 72.4 -25.6 L 74.5 -25.6 L 74.5 -22 L 74.5 -22 Q 73.1 -21.2 71 -21.2 L 71 -21.2 L 71 -21.2 Q 69 -21.2 67.6 -22.4 L 67.6 -22.4 L 67.6 -22.4 Q 66.2 -23.5 65.7 -25.4 L 65.7 -25.4 L 65.4 -25.4 L 65.4 -25.4 Q 64.1 -23.3 62 -22.1 L 62 -22.1 L 62 -22.1 Q 59.8 -21 57.2 -21 L 57.2 -21 Z M 58.4 -25.6 L 58.4 -25.6 Q 60.1 -25.6 61.7 -26.6 L 61.7 -26.6 L 61.7 -26.6 Q 63.3 -27.6 64.4 -29.5 L 64.4 -29.5 L 64.4 -29.5 Q 65.4 -31.3 65.4 -34 L 65.4 -34 L 65.4 -37 L 65.4 -37 Q 59.6 -37 56.7 -35.7 L 56.7 -35.7 L 56.7 -35.7 Q 53.9 -34.4 53.9 -30.8 L 53.9 -30.8 L 53.9 -30.8 Q 53.9 -28 55 -26.8 L 55 -26.8 L 55 -26.8 Q 56.1 -25.6 58.4 -25.6 L 58.4 -25.6 Z M 84.5 -10.1 L 84.5 -10.1 Q 80.5 -10.1 78.4 -12.4 L 78.4 -12.4 L 78.4 -12.4 Q 76.2 -14.6 76.2 -18.1 L 76.2 -18.1 L 76.2 -18.1 Q 76.2 -20.6 77.4 -22.5 L 77.4 -22.5 L 77.4 -22.5 Q 78.6 -24.5 80.5 -25.3 L 80.5 -25.3 L 80.5 -25.3 Q 79.3 -26.1 78.5 -27.4 L 78.5 -27.4 L 78.5 -27.4 Q 77.8 -28.8 77.8 -30.3 L 77.8 -30.3 L 77.8 -30.3 Q 77.8 -32.3 79.1 -33.8 L 79.1 -33.8 L 79.1 -33.8 Q 80.4 -35.4 82.5 -36.1 L 82.5 -36.1 L 82.5 -36.1 Q 78.6 -39.3 78.6 -44.8 L 78.6 -44.8 L 78.6 -44.8 Q 78.6 -50.2 81.6 -53.2 L 81.6 -53.2 L 81.6 -53.2 Q 84.5 -56.2 89.6 -56.2 L 89.6 -56.2 L 89.6 -56.2 Q 92.3 -56.2 94.5 -55 L 94.5 -55 L 94.5 -55 Q 96.5 -56 97.5 -57.5 L 97.5 -57.5 L 97.5 -57.5 Q 98.4 -59 98.7 -60.8 L 98.7 -60.8 L 103.3 -60.8 L 103.3 -60.8 Q 103.3 -57.8 101.8 -55.6 L 101.8 -55.6 L 101.8 -55.6 Q 100.3 -53.4 97.6 -52.8 L 97.6 -52.8 L 97.6 -52.8 Q 100.6 -49.6 100.6 -44.8 L 100.6 -44.8 L 100.6 -44.8 Q 100.6 -39.7 97.7 -36.6 L 97.7 -36.6 L 97.7 -36.6 Q 94.8 -33.6 89.9 -33.5 L 89.9 -33.5 L 86.4 -33.5 L 86.4 -33.5 Q 85.1 -33.5 84.2 -32.7 L 84.2 -32.7 L 84.2 -32.7 Q 83.3 -31.8 83.3 -30.5 L 83.3 -30.5 L 83.3 -30.5 Q 83.3 -29.3 84.2 -28.4 L 84.2 -28.4 L 84.2 -28.4 Q 85.1 -27.5 86.4 -27.5 L 86.4 -27.5 L 96 -27.5 L 96 -27.5 Q 99.6 -27.5 101.7 -25.2 L 101.7 -25.2 L 101.7 -25.2 Q 103.9 -23 103.9 -19.6 L 103.9 -19.6 L 103.9 -19.6 Q 103.9 -15.5 101.3 -12.8 L 101.3 -12.8 L 101.3 -12.8 Q 98.7 -10.1 94.1 -10.1 L 94.1 -10.1 L 84.5 -10.1 Z M 89.6 -37.9 L 89.6 -37.9 Q 92.3 -37.9 93.8 -39.7 L 93.8 -39.7 L 93.8 -39.7 Q 95.3 -41.6 95.3 -44.8 L 95.3 -44.8 L 95.3 -44.8 Q 95.3 -48.2 93.8 -50 L 93.8 -50 L 93.8 -50 Q 92.3 -51.8 89.6 -51.8 L 89.6 -51.8 L 89.6 -51.8 Q 86.8 -51.8 85.3 -50 L 85.3 -50 L 85.3 -50 Q 83.9 -48.1 83.9 -44.8 L 83.9 -44.8 L 83.9 -44.8 Q 83.9 -41.5 85.3 -39.7 L 85.3 -39.7 L 85.3 -39.7 Q 86.8 -37.9 89.6 -37.9 L 89.6 -37.9 Z M 85.3 -14.6 L 94.6 -14.6 L 94.6 -14.6 Q 96.3 -14.6 97.4 -15.8 L 97.4 -15.8 L 97.4 -15.8 Q 98.6 -16.9 98.6 -18.6 L 98.6 -18.6 L 98.6 -18.6 Q 98.6 -20.3 97.6 -21.4 L 97.6 -21.4 L 97.6 -21.4 Q 96.5 -22.5 94.6 -22.5 L 94.6 -22.5 L 85.3 -22.5 L 85.3 -22.5 Q 83.4 -22.5 82.4 -21.4 L 82.4 -21.4 L 82.4 -21.4 Q 81.4 -20.3 81.4 -18.6 L 81.4 -18.6 L 81.4 -18.6 Q 81.4 -16.9 82.5 -15.8 L 82.5 -15.8 L 82.5 -15.8 Q 83.5 -14.6 85.3 -14.6 L 85.3 -14.6 Z M 120 -21 L 120 -21 Q 113.6 -21 110.4 -25.2 L 110.4 -25.2 L 110.4 -25.2 Q 107.2 -29.4 107.2 -38.6 L 107.2 -38.6 L 107.2 -38.6 Q 107.2 -47.6 110.4 -51.9 L 110.4 -51.9 L 110.4 -51.9 Q 113.5 -56.2 119.9 -56.2 L 119.9 -56.2 L 119.9 -56.2 Q 125.5 -56.2 128.3 -52.4 L 128.3 -52.4 L 128.3 -52.4 Q 131 -48.7 131 -40.4 L 131 -40.4 L 131 -37 L 112.7 -37 L 112.7 -37 Q 112.8 -31.2 114.6 -28.4 L 114.6 -28.4 L 114.6 -28.4 Q 116.3 -25.6 120.1 -25.6 L 120.1 -25.6 L 120.1 -25.6 Q 122.7 -25.6 124.2 -27.7 L 124.2 -27.7 L 124.2 -27.7 Q 125.8 -29.7 125.8 -33.2 L 125.8 -33.2 L 131 -33.2 L 131 -33.2 Q 131 -27.6 127.9 -24.3 L 127.9 -24.3 L 127.9 -24.3 Q 124.9 -21 120 -21 L 120 -21 Z M 112.8 -41.7 L 125.5 -41.7 L 125.5 -41.7 Q 125.5 -46.5 124.1 -49 L 124.1 -49 L 124.1 -49 Q 122.7 -51.5 119.9 -51.5 L 119.9 -51.5 L 119.9 -51.5 Q 116.5 -51.5 114.8 -49.1 L 114.8 -49.1 L 114.8 -49.1 Q 113.1 -46.7 112.8 -41.7 L 112.8 -41.7 Z M 146.7 -21 L 146.7 -21 Q 141.2 -21 138.5 -23.8 L 138.5 -23.8 L 138.5 -23.8 Q 135.8 -26.7 135.8 -30.8 L 135.8 -30.8 L 135.8 -30.8 Q 135.8 -31.6 135.9 -31.9 L 135.9 -31.9 L 135.9 -31.9 Q 135.9 -32.2 135.9 -32.2 L 135.9 -32.2 L 141.4 -32.2 L 141.4 -31.6 L 141.4 -31.6 Q 141.4 -28.6 142.9 -27.1 L 142.9 -27.1 L 142.9 -27.1 Q 144.5 -25.6 146.9 -25.6 L 146.9 -25.6 L 146.9 -25.6 Q 149.1 -25.6 150.5 -26.9 L 150.5 -26.9 L 150.5 -26.9 Q 152 -28.2 152 -30.6 L 152 -30.6 L 152 -30.6 Q 152 -32.4 151.1 -33.5 L 151.1 -33.5 L 151.1 -33.5 Q 150.2 -34.7 148.9 -35.3 L 148.9 -35.3 L 148.9 -35.3 Q 147.6 -36 145.3 -36.8 L 145.3 -36.8 L 145.3 -36.8 Q 142.5 -37.8 140.8 -38.8 L 140.8 -38.8 L 140.8 -38.8 Q 139 -39.7 137.8 -41.6 L 137.8 -41.6 L 137.8 -41.6 Q 136.6 -43.5 136.6 -46.6 L 136.6 -46.6 L 136.6 -46.6 Q 136.6 -51 139.5 -53.6 L 139.5 -53.6 L 139.5 -53.6 Q 142.3 -56.2 147.1 -56.2 L 147.1 -56.2 L 147.1 -56.2 Q 151.7 -56.2 154.2 -53.5 L 154.2 -53.5 L 154.2 -53.5 Q 156.8 -50.9 156.8 -47 L 156.8 -47 L 156.7 -45.7 L 151.3 -45.7 L 151.3 -46.3 L 151.3 -46.3 Q 151.3 -48.6 150.2 -50.1 L 150.2 -50.1 L 150.2 -50.1 Q 149.1 -51.6 146.6 -51.6 L 146.6 -51.6 L 146.6 -51.6 Q 144.1 -51.6 143.1 -50.2 L 143.1 -50.2 L 143.1 -50.2 Q 142.1 -48.8 142.1 -47 L 142.1 -47 L 142.1 -47 Q 142.1 -44.8 143.6 -43.7 L 143.6 -43.7 L 143.6 -43.7 Q 145.1 -42.7 148.2 -41.6 L 148.2 -41.6 L 148.2 -41.6 Q 151.1 -40.6 152.9 -39.6 L 152.9 -39.6 L 152.9 -39.6 Q 154.8 -38.6 156.1 -36.7 L 156.1 -36.7 L 156.1 -36.7 Q 157.4 -34.7 157.4 -31.3 L 157.4 -31.3 L 157.4 -31.3 Q 157.4 -26.2 154.5 -23.6 L 154.5 -23.6 L 154.5 -23.6 Q 151.6 -21 146.7 -21 L 146.7 -21 Z M 194.1 -39.7 L 194.1 -44.6 L 211.2 -44.6 L 211.2 -21.7 L 207.5 -21.7 L 206.3 -26.6 L 206.3 -26.6 Q 202.5 -21 195 -21 L 195 -21 L 195 -21 Q 186.6 -21 182.1 -26.7 L 182.1 -26.7 L 182.1 -26.7 Q 177.7 -32.4 177.7 -43.7 L 177.7 -43.7 L 177.7 -43.7 Q 177.7 -54.9 182.3 -60.7 L 182.3 -60.7 L 182.3 -60.7 Q 186.9 -66.4 195.3 -66.4 L 195.3 -66.4 L 195.3 -66.4 Q 202.5 -66.4 206.9 -62.4 L 206.9 -62.4 L 206.9 -62.4 Q 211.2 -58.4 211.2 -50.7 L 211.2 -50.7 L 205.5 -50.7 L 205.5 -50.7 Q 205.5 -56 202.8 -58.6 L 202.8 -58.6 L 202.8 -58.6 Q 200 -61.2 195.3 -61.2 L 195.3 -61.2 L 195.3 -61.2 Q 189.7 -61.2 186.7 -57.2 L 186.7 -57.2 L 186.7 -57.2 Q 183.6 -53.2 183.6 -45.3 L 183.6 -45.3 L 183.6 -42.1 L 183.6 -42.1 Q 183.6 -34.2 186.5 -30.2 L 186.5 -30.2 L 186.5 -30.2 Q 189.4 -26.2 195 -26.2 L 195 -26.2 L 195 -26.2 Q 200.4 -26.2 202.9 -29.2 L 202.9 -29.2 L 202.9 -29.2 Q 205.5 -32.3 205.5 -38.6 L 205.5 -38.6 L 205.5 -39.7 L 194.1 -39.7 Z M 226.4 -21 L 226.4 -21 Q 222.9 -21 220.3 -23 L 220.3 -23 L 220.3 -23 Q 217.6 -25.1 217.6 -30.4 L 217.6 -30.4 L 217.6 -30.4 Q 217.6 -36.9 222 -39.3 L 222 -39.3 L 222 -39.3 Q 226.3 -41.7 234.6 -41.7 L 234.6 -41.7 L 234.6 -46.1 L 234.6 -46.1 Q 234.6 -48.7 233.4 -50.1 L 233.4 -50.1 L 233.4 -50.1 Q 232.3 -51.5 229.3 -51.5 L 229.3 -51.5 L 229.3 -51.5 Q 226.5 -51.5 225.3 -50 L 225.3 -50 L 225.3 -50 Q 224.1 -48.4 224.1 -46.2 L 224.1 -46.2 L 224.1 -45.4 L 218.9 -45.4 L 218.9 -45.4 Q 218.9 -45.8 218.9 -46.8 L 218.9 -46.8 L 218.9 -46.8 Q 218.9 -51.3 221.8 -53.7 L 221.8 -53.7 L 221.8 -53.7 Q 224.7 -56.2 229.7 -56.2 L 229.7 -56.2 L 229.7 -56.2 Q 234.7 -56.2 237.3 -53.7 L 237.3 -53.7 L 237.3 -53.7 Q 239.8 -51.3 239.8 -46.8 L 239.8 -46.8 L 239.8 -27.9 L 239.8 -27.9 Q 239.8 -26.8 240.4 -26.2 L 240.4 -26.2 L 240.4 -26.2 Q 240.9 -25.6 241.6 -25.6 L 241.6 -25.6 L 243.7 -25.6 L 243.7 -22 L 243.7 -22 Q 242.3 -21.2 240.2 -21.2 L 240.2 -21.2 L 240.2 -21.2 Q 238.2 -21.2 236.8 -22.4 L 236.8 -22.4 L 236.8 -22.4 Q 235.4 -23.5 234.9 -25.4 L 234.9 -25.4 L 234.6 -25.4 L 234.6 -25.4 Q 233.3 -23.3 231.2 -22.1 L 231.2 -22.1 L 231.2 -22.1 Q 229 -21 226.4 -21 L 226.4 -21 Z M 227.6 -25.6 L 227.6 -25.6 Q 229.3 -25.6 230.9 -26.6 L 230.9 -26.6 L 230.9 -26.6 Q 232.5 -27.6 233.6 -29.5 L 233.6 -29.5 L 233.6 -29.5 Q 234.6 -31.3 234.6 -34 L 234.6 -34 L 234.6 -37 L 234.6 -37 Q 228.8 -37 226 -35.7 L 226 -35.7 L 226 -35.7 Q 223.1 -34.4 223.1 -30.8 L 223.1 -30.8 L 223.1 -30.8 Q 223.1 -28 224.2 -26.8 L 224.2 -26.8 L 224.2 -26.8 Q 225.3 -25.6 227.6 -25.6 L 227.6 -25.6 Z M 247.8 -21.7 L 247.8 -68 L 253 -68 L 253 -21.7 L 247.8 -21.7 Z M 259.4 -21.7 L 259.4 -68 L 264.7 -68 L 264.7 -21.7 L 259.4 -21.7 Z M 283.3 -21 L 283.3 -21 Q 276.9 -21 273.7 -25.2 L 273.7 -25.2 L 273.7 -25.2 Q 270.6 -29.4 270.6 -38.6 L 270.6 -38.6 L 270.6 -38.6 Q 270.6 -47.6 273.7 -51.9 L 273.7 -51.9 L 273.7 -51.9 Q 276.8 -56.2 283.2 -56.2 L 283.2 -56.2 L 283.2 -56.2 Q 288.9 -56.2 291.6 -52.4 L 291.6 -52.4 L 291.6 -52.4 Q 294.3 -48.7 294.3 -40.4 L 294.3 -40.4 L 294.3 -37 L 276.1 -37 L 276.1 -37 Q 276.1 -31.2 277.9 -28.4 L 277.9 -28.4 L 277.9 -28.4 Q 279.7 -25.6 283.4 -25.6 L 283.4 -25.6 L 283.4 -25.6 Q 286 -25.6 287.6 -27.7 L 287.6 -27.7 L 287.6 -27.7 Q 289.1 -29.7 289.1 -33.2 L 289.1 -33.2 L 294.3 -33.2 L 294.3 -33.2 Q 294.3 -27.6 291.3 -24.3 L 291.3 -24.3 L 291.3 -24.3 Q 288.2 -21 283.3 -21 L 283.3 -21 Z M 276.1 -41.7 L 288.8 -41.7 L 288.8 -41.7 Q 288.8 -46.5 287.4 -49 L 287.4 -49 L 287.4 -49 Q 286 -51.5 283.2 -51.5 L 283.2 -51.5 L 283.2 -51.5 Q 279.8 -51.5 278.1 -49.1 L 278.1 -49.1 L 278.1 -49.1 Q 276.5 -46.7 276.1 -41.7 L 276.1 -41.7 Z M 300.9 -21.7 L 300.9 -55.4 L 304.9 -55.4 L 305.6 -51 L 306 -51 L 306 -51 Q 306.7 -53.2 308.1 -54.7 L 308.1 -54.7 L 308.1 -54.7 Q 309.5 -56.2 311.7 -56.2 L 311.7 -56.2 L 311.7 -56.2 Q 312.5 -56.2 313.3 -56 L 313.3 -56 L 313.3 -56 Q 314 -55.7 314.1 -55.7 L 314.1 -55.7 L 314.1 -50.2 L 312.4 -50.2 L 312.4 -50.2 Q 309.7 -50.2 307.9 -48.3 L 307.9 -48.3 L 307.9 -48.3 Q 306.1 -46.4 306.1 -42.3 L 306.1 -42.3 L 306.1 -21.7 L 300.9 -21.7 Z M 320.7 -10.1 L 320.7 -10.1 Q 318.4 -10.1 317 -10.6 L 317 -10.6 L 317 -14.3 L 318.8 -14.3 L 318.8 -14.3 Q 323.9 -14.3 325.5 -21.7 L 325.5 -21.7 L 315.2 -55.4 L 320.9 -55.4 L 326.6 -35.3 L 328.4 -29.3 L 328.6 -29.3 L 330.1 -35.4 L 334.9 -55.4 L 340.2 -55.4 L 331.6 -23.5 L 331.6 -23.5 Q 330 -17.2 327.4 -13.6 L 327.4 -13.6 L 327.4 -13.6 Q 324.8 -10.1 320.7 -10.1 L 320.7 -10.1 Z" fill="url(#editing-gradient-gradient)"></path></g></g><style>text {
  font-size: 64px;
  font-family: Arial Black;
  dominant-baseline: central;
  text-anchor: middle;
}</style></svg>